<svg xmlns="http://www.w3.org/2000/svg" className="waves" viewBox="0 0 1440 320" preserveAspectRatio="none">
  <path fill="#FF4F79" fill-opacity="1" d="M0,224L21.8,229.3C43.6,235,87,245,131,224C174.5,203,218,149,262,117.3C305.5,85,349,75,393,69.3C436.4,64,480,64,524,80C567.3,96,611,128,655,128C698.2,128,742,96,785,96C829.1,96,873,128,916,154.7C960,181,1004,203,1047,202.7C1090.9,203,1135,181,1178,170.7C1221.8,160,1265,160,1309,165.3C1352.7,171,1396,181,1418,186.7L1440,192L1440,320L1418.2,320C1396.4,320,1353,320,1309,320C1265.5,320,1222,320,1178,320C1134.5,320,1091,320,1047,320C1003.6,320,960,320,916,320C872.7,320,829,320,785,320C741.8,320,698,320,655,320C610.9,320,567,320,524,320C480,320,436,320,393,320C349.1,320,305,320,262,320C218.2,320,175,320,131,320C87.3,320,44,320,22,320L0,320Z">
    <animate 
      attributeName="d" 
      dur="10s" 
      repeatCount="indefinite"
      values="
        M0,224L21.8,229.3C43.6,235,87,245,131,224C174.5,203,218,149,262,117.3C305.5,85,349,75,393,69.3C436.4,64,480,64,524,80C567.3,96,611,128,655,128C698.2,128,742,96,785,96C829.1,96,873,128,916,154.7C960,181,1004,203,1047,202.7C1090.9,203,1135,181,1178,170.7C1221.8,160,1265,160,1309,165.3C1352.7,171,1396,181,1418,186.7L1440,192L1440,320L1418.2,320C1396.4,320,1353,320,1309,320C1265.5,320,1222,320,1178,320C1134.5,320,1091,320,1047,320C1003.6,320,960,320,916,320C872.7,320,829,320,785,320C741.8,320,698,320,655,320C610.9,320,567,320,524,320C480,320,436,320,393,320C349.1,320,305,320,262,320C218.2,320,175,320,131,320C87.3,320,44,320,22,320L0,320Z;
        
        M0,192L21.8,181.3C43.6,171,87,149,131,154.7C174.5,160,218,192,262,208C305.5,224,349,224,393,208C436.4,192,480,160,524,138.7C567.3,117,611,107,655,122.7C698.2,139,742,181,785,197.3C829.1,213,873,203,916,181.3C960,160,1004,128,1047,122.7C1090.9,117,1135,139,1178,154.7C1221.8,171,1265,181,1309,170.7C1352.7,160,1396,128,1418,112L1440,96L1440,320L1418.2,320C1396.4,320,1353,320,1309,320C1265.5,320,1222,320,1178,320C1134.5,320,1091,320,1047,320C1003.6,320,960,320,916,320C872.7,320,829,320,785,320C741.8,320,698,320,655,320C610.9,320,567,320,524,320C480,320,436,320,393,320C349.1,320,305,320,262,320C218.2,320,175,320,131,320C87.3,320,44,320,22,320L0,320Z;
        
        M0,160L21.8,170.7C43.6,181,87,203,131,197.3C174.5,192,218,160,262,144C305.5,128,349,128,393,144C436.4,160,480,192,524,213.3C567.3,235,611,245,655,229.3C698.2,213,742,171,785,154.7C829.1,139,873,149,916,170.7C960,192,1004,224,1047,229.3C1090.9,235,1135,213,1178,197.3C1221.8,181,1265,171,1309,181.3C1352.7,192,1396,224,1418,240L1440,256L1440,320L1418.2,320C1396.4,320,1353,320,1309,320C1265.5,320,1222,320,1178,320C1134.5,320,1091,320,1047,320C1003.6,320,960,320,916,320C872.7,320,829,320,785,320C741.8,320,698,320,655,320C610.9,320,567,320,524,320C480,320,436,320,393,320C349.1,320,305,320,262,320C218.2,320,175,320,131,320C87.3,320,44,320,22,320L0,320Z;
        
        M0,224L21.8,229.3C43.6,235,87,245,131,224C174.5,203,218,149,262,117.3C305.5,85,349,75,393,69.3C436.4,64,480,64,524,80C567.3,96,611,128,655,128C698.2,128,742,96,785,96C829.1,96,873,128,916,154.7C960,181,1004,203,1047,202.7C1090.9,203,1135,181,1178,170.7C1221.8,160,1265,160,1309,165.3C1352.7,171,1396,181,1418,186.7L1440,192L1440,320L1418.2,320C1396.4,320,1353,320,1309,320C1265.5,320,1222,320,1178,320C1134.5,320,1091,320,1047,320C1003.6,320,960,320,916,320C872.7,320,829,320,785,320C741.8,320,698,320,655,320C610.9,320,567,320,524,320C480,320,436,320,393,320C349.1,320,305,320,262,320C218.2,320,175,320,131,320C87.3,320,44,320,22,320L0,320Z"
    />
  </path>
</svg>